#!OML:ASF X:\für Bonn\!DataBase\2005_08_12_Daniel\c3d\Daniel.ASF
:FULLY-SPECIFIED
:DEGREES
78
root 5.68733 16.5489 -0.124819 -825.743 -83.1172 793.596
lowerback 29.346 -1.45435 -0.642004
upperback 10.0754 -3.8109 -7.47948
thorax -5.28322 -2.28687 -6.68793
lowerneck 9.45419 4.24025 0.590644
upperneck 15.1397 5.23232 -2.49564
head 3.39122 2.24785 -0.928999
rclavicle 8.10048e-015 -1.11319e-014
rhumerus -24.3453 6.88588 -86.8995
rradius 45.204
rwrist 15.9198
rhand -26.4527 14.9421
rfingers 7.12502
rthumb 0.10851 -15.0377
lclavicle 8.10048e-015 -1.11319e-014
lhumerus -55.3006 16.8697 62.2372
lradius 104.945
lwrist 200.798
lhand -13.0615 14.4384
lfingers 7.12502
lthumb 13.0339 44.0112
rfemur 2.76134 9.11628 18.1425
rtibia 40.3357
rfoot -9.9851 3.60916
rtoes -8.90732
lfemur -59.0957 12.9566 -21.1665
ltibia 130.454
lfoot 34.3865 -18.9363
ltoes -16.727
79
root 5.60575 16.5707 -0.113597 -831.85 -82.507 797.642
lowerback 31.5897 -0.750203 -0.64374
upperback 10.5479 -3.14525 -8.06599
thorax -5.33159 -1.98149 -7.05425
lowerneck 9.22791 3.95871 0.372241
upperneck 15.4228 4.78999 -1.87634
head 3.4937 2.03168 -0.684595
rclavicle -5.1038e-014 -1.00187e-013
rhumerus -23.7129 7.90193 -86.6023
rradius 46.8486
rwrist 14.8771
rhand -26.8126 14.6008
rfingers 7.12502
rthumb -0.239128 -15.3788
lclavicle -5.1038e-014 -1.00187e-013
lhumerus -54.9169 16.6215 61.4814
lradius 105.403
lwrist 201.121
lhand -12.9618 14.4962
lfingers 7.12502
lthumb 13.13 44.0628
rfemur 5.9131 9.52162 17.9645
rtibia 39.2605
rfoot -9.94163 3.78169
rtoes -8.98525
lfemur -61.7075 13.0225 -21.9013
ltibia 130.124
lfoot 35.5197 -17.8407
ltoes -15.652
80
root 5.5238 16.595 -0.101071 -836.968 -81.7373 800.786
lowerback 33.571 -0.0416751 -0.658223
upperback 11.1621 -2.50249 -8.45385
thorax -5.37361 -1.71573 -7.65989
lowerneck 9.00685 3.69184 0.113521
upperneck 15.7073 4.36002 -1.24451
head 3.6006 1.82093 -0.429962
rclavicle 3.85642e-014 -3.81667e-014
rhumerus -23.1745 9.0778 -86.1644
rradius 48.4237
rwrist 13.5177
rhand -27.2716 14.2204
rfingers 7.12502
rthumb -0.682369 -15.7583
lclavicle 3.85642e-014 -3.81667e-014
lhumerus -54.5236 16.4124 60.7498
lradius 105.844
lwrist 201.414
lhand -12.8769 14.5096
lfingers 7.12502
lthumb 13.2118 44.0709
rfemur 8.94292 9.97177 17.6387
rtibia 38.2156
rfoot -9.91803 3.96342
rtoes -9.22645
lfemur -64.3207 13.0144 -22.717
ltibia 129.517
lfoot 36.1106 -16.7485
ltoes -15.7516
81
root 5.44532 16.6191 -0.0852502 -841.473 -80.8354 803.498
lowerback 35.4553 0.686693 -0.713348
upperback 11.6782 -1.86099 -8.84324
thorax -5.43639 -1.44989 -8.27083
lowerneck 8.79358 3.43717 -0.172676
upperneck 16.0069 3.9365 -0.575153
head 3.71651 1.61362 -0.158514
rclavicle 2.57426e-014 -7.15625e-014
rhumerus -22.7624 10.3149 -85.5847
rradius 50.0255
rwrist 11.907
rhand -27.7147 13.8857
rfingers 7.12502
rthumb -1.11034 -16.0912
lclavicle 2.57426e-014 -7.15625e-014
lhumerus -54.178 16.2631 60.04
lradius 106.304
lwrist 201.692
lhand -12.8377 14.4747
lfingers 7.12502
lthumb 13.2496 44.0336
rfemur 11.6694 10.4427 17.1374
rtibia 37.2525
rfoot -9.85293 4.2323
rtoes -9.40279
lfemur -66.9842 12.9702 -23.57
ltibia 128.597
lfoot 36.1291 -15.5261
ltoes -17.8455
82
root 5.37003 16.6415 -0.0674064 -844.983 -79.8431 805.374
lowerback 37.2673 1.39721 -0.79537
upperback 12.0924 -1.26426 -9.23917
thorax -5.54631 -1.20415 -8.88168
lowerneck 8.71512 3.21039 -0.497735
upperneck 16.2764 3.53513 0.134785
head 3.80282 1.41633 0.131158
rclavicle 1.48095e-014 2.70347e-014
rhumerus -22.5 11.4534 -84.9277
rradius 51.761
rwrist 10.1648
rhand -28.0406 13.5931
rfingers 7.12502
rthumb -1.42515 -16.3819
lclavicle 1.48095e-014 2.70347e-014
lhumerus -53.8928 16.1245 59.3227
lradius 106.768
lwrist 201.906
lhand -12.7586 14.3997
lfingers 7.12502
lthumb 13.3259 43.9537
rfemur 14.1233 10.9095 16.4812
rtibia 36.3922
rfoot -9.78769 4.53405
rtoes -9.45178
lfemur -69.5099 12.7871 -24.4371
ltibia 127.31
lfoot 35.5371 -14.0287
ltoes -19.4623
83
root 5.29492 16.6603 -0.0498208 -847.543 -78.8214 806.427
lowerback 39.0209 2.07138 -0.89581
upperback 12.426 -0.730278 -9.62506
thorax -5.69245 -0.987199 -9.46932
lowerneck 8.74856 3.02219 -0.934032
upperneck 16.5251 3.16291 0.920137
head 3.865 1.22857 0.464185
rclavicle -5.04913e-014 7.15625e-014
rhumerus -22.338 12.537 -84.1914
rradius 53.5521
rwrist 8.33073
rhand -28.3505 13.3898
rfingers 7.12502
rthumb -1.72447 -16.583
lclavicle -5.04913e-014 7.15625e-014
lhumerus -53.6832 16.0546 58.6328
lradius 107.216
lwrist 202.103
lhand -12.6885 14.3423
lfingers 7.12502
lthumb 13.3934 43.8918
rfemur 16.3745 11.3458 15.7228
rtibia 35.5976
rfoot -9.7384 4.85023
rtoes -9.5835
lfemur -71.8806 12.5079 -25.2438
ltibia 125.69
lfoot 34.8504 -12.3545
ltoes -18.1922
84
root 5.21885 16.6783 -0.0334723 -849.332 -77.8471 806.858
lowerback 40.7277 2.70479 -1.02777
upperback 12.6243 -0.264498 -9.95595
thorax -5.80293 -0.796999 -10.0127
lowerneck 8.84023 2.85553 -1.3648
upperneck 16.7194 2.81821 1.69085
head 3.90447 1.05454 0.792357
rclavicle 3.16068e-014 1.74931e-014
rhumerus -22.244 13.6049 -83.4151
rradius 55.296
rwrist 6.50906
rhand -28.8056 13.3542
rfingers 7.12502
rthumb -2.16401 -16.6146
lclavicle 3.16068e-014 1.74931e-014
lhumerus -53.4927 16.0379 57.9646
lradius 107.666
lwrist 202.144
lhand -12.6082 14.1921
lfingers 7.12502
lthumb 13.4709 43.7365
rfemur 18.4578 11.7644 14.9618
rtibia 34.8065
rfoot -9.71974 5.10568
rtoes -9.74011
lfemur -74.1478 12.1128 -25.9377
ltibia 123.793
lfoot 33.9876 -10.3895
ltoes -16.6479
85
root 5.14483 16.7036 -0.0204158 -850.183 -76.9603 806.498
lowerback 42.2067 3.25445 -1.1374
upperback 12.881 0.119347 -10.2905
thorax -5.90795 -0.645855 -10.5079
lowerneck 9.00313 2.70491 -1.72847
upperneck 16.878 2.49616 2.44094
head 3.92551 0.893929 1.10338
rclavicle 2.48481e-014 -4.29375e-014
rhumerus -22.2444 14.6805 -82.6323
rradius 57.0401
rwrist 4.69697
rhand -29.4228 13.4273
rfingers 7.12502
rthumb -2.76006 -16.5346
lclavicle 2.48481e-014 -4.29375e-014
lhumerus -53.3135 16.095 57.3339
lradius 108.058
lwrist 202.099
lhand -12.5656 13.9876
lfingers 7.12502
lthumb 13.5119 43.5292
rfemur 20.4212 12.102 14.2006
rtibia 33.983
rfoot -9.69722 5.25486
rtoes -9.83333
lfemur -76.2516 11.5057 -26.5365
ltibia 121.572
lfoot 32.9544 -8.02553
ltoes -15.3608
86
root 5.06938 16.7348 -0.0137674 -850.309 -76.2022 805.569
lowerback 43.5131 3.73864 -1.2725
upperback 13.113 0.433272 -10.5622
thorax -5.975 -0.524507 -10.8975
lowerneck 9.10737 2.57446 -2.09247
upperneck 17.0646 2.20084 3.17588
head 3.97248 0.745681 1.41393
rclavicle -1.0138e-014 9.54166e-015
rhumerus -22.2762 15.7318 -81.8253
rradius 58.7195
rwrist 3.06946
rhand -30.2166 13.6724
rfingers 7.12502
rthumb -3.52659 -16.2782
lclavicle -1.0138e-014 9.54166e-015
lhumerus -53.1911 16.1918 56.7392
lradius 108.468
lwrist 201.888
lhand -12.4927 13.6637
lfingers 7.12502
lthumb 13.5822 43.2007
rfemur 22.287 12.3754 13.5261
rtibia 33.1182
rfoot -9.70817 5.27522
rtoes -9.83497
lfemur -78.2164 10.75 -27.0042
ltibia 119.061
lfoot 31.3111 -5.51922
ltoes -14.2898
87
root 4.99106 16.7617 -0.0108579 -849.961 -75.5569 804.303
lowerback 44.6951 4.14905 -1.40018
upperback 13.3132 0.675382 -10.7974
thorax -6.03587 -0.433461 -11.2249
lowerneck 9.17569 2.46217 -2.42673
upperneck 17.2569 1.9359 3.86068
head 4.03269 0.61268 1.70649
rclavicle -5.1684e-014 6.67916e-014
rhumerus -22.4534 16.688 -81.0652
rradius 60.4837
rwrist 1.7088
rhand -31.0775 13.9861
rfingers 7.12502
rthumb -4.35798 -15.949
lclavicle -5.1684e-014 6.67916e-014
lhumerus -53.1002 16.3589 56.1731
lradius 108.878
lwrist 201.542
lhand -12.4723 13.2621
lfingers 7.12502
lthumb 13.6018 42.7977
rfemur 24.0455 12.5745 12.9227
rtibia 32.2291
rfoot -9.73054 5.19359
rtoes -9.85385
lfemur -80.0206 9.93368 -27.3547
ltibia 116.199
lfoot 29.3799 -3.06471
ltoes -12.0513
88
root 4.91257 16.7852 -0.00995862 -849.464 -74.9727 803.024
lowerback 45.7927 4.5241 -1.55066
upperback 13.455 0.874868 -11.0026
thorax -6.13128 -0.360576 -11.4927
lowerneck 9.22379 2.37578 -2.72452
upperneck 17.4705 1.71011 4.49427
head 4.10758 0.49899 1.97927
rclavicle -5.20816e-014 1.43125e-014
rhumerus -22.8324 17.4983 -80.3799
rradius 62.3842
rwrist 0.709772
rhand -31.9553 14.3131
rfingers 7.12502
rthumb -5.20556 -15.603
lclavicle -5.20816e-014 1.43125e-014
lhumerus -53.0798 16.6769 55.6465
lradius 109.311
lwrist 201.054
lhand -12.4805 12.833
lfingers 7.12502
lthumb 13.5939 42.3692
rfemur 25.6599 12.7758 12.3967
rtibia 31.3606
rfoot -9.75452 5.02273
rtoes -9.83953
lfemur -81.5707 9.15529 -27.5846
ltibia 112.918
lfoot 27.6766 -0.948561
ltoes -9.97498
89
root 4.83745 16.8087 -0.0106132 -848.852 -74.4476 801.748
lowerback 46.809 4.86607 -1.69935
upperback 13.5575 1.04632 -11.1775
thorax -6.24173 -0.298256 -11.7178
lowerneck 9.29468 2.29995 -3.0285
upperneck 17.6532 1.50153 5.09223
head 4.16975 0.392162 2.24311
rclavicle 1.78906e-015 -3.49861e-014
rhumerus -23.4673 18.0973 -79.7453
rradius 64.5074
rwrist 0.0218099
rhand -32.6654 14.5295
rfingers 7.12502
rthumb -5.89115 -15.3686
lclavicle 1.78906e-015 -3.49861e-014
lhumerus -53.1858 17.1436 55.2092
lradius 109.855
lwrist 200.468
lhand -12.4968 12.3188
lfingers 7.12502
lthumb 13.5782 41.856
rfemur 27.1285 13.0336 12.0051
rtibia 30.5691
rfoot -9.84721 4.71922
rtoes -9.89468
lfemur -82.7628 8.40791 -27.6861
ltibia 109.195
lfoot 25.6857 0.940951
ltoes -10.6835
90
root 4.76535 16.83 -0.0127444 -848.224 -73.9991 800.582
lowerback 48.651 5.2948 -2.08106
upperback 12.6616 1.14487 -11.2784
thorax -6.34597 -0.203769 -11.7168
lowerneck 9.29612 2.24359 -3.32433
upperneck 17.8876 1.31814 5.67705
head 4.26557 0.29819 2.50635
rclavicle 2.127e-014 3.65764e-014
rhumerus -24.2725 18.4961 -79.2412
rradius 66.7087
rwrist -0.359486
rhand -33.2307 14.6833
rfingers 7.12502
rthumb -6.4369 -15.1989
lclavicle 2.127e-014 3.65764e-014
lhumerus -53.352 17.7209 54.8532
lradius 110.46
lwrist 200.007
lhand -12.555 11.7821
lfingers 7.12502
lthumb 13.5221 41.3231
rfemur 28.4692 13.3627 11.7939
rtibia 29.7982
rfoot -9.93454 4.27463
rtoes -9.76531
lfemur -83.644 7.73515 -27.6391
ltibia 105.087
lfoot 23.339 2.82533
ltoes -13.5444
91
root 4.69613 16.8484 -0.0169309 -847.475 -73.6066 799.424
lowerback 49.5003 5.58119 -2.21022
upperback 12.6485 1.28178 -11.3934
thorax -6.46166 -0.14651 -11.8775
lowerneck 9.10702 2.20595 -3.68823
upperneck 18.634 1.1034 6.46777
head 4.02955 0.2218 2.61065
rclavicle -1.78906e-014 1.90833e-014
rhumerus -25.2145 18.602 -78.883
rradius 68.8192
rwrist -0.535745
rhand -33.5392 14.9467
rfingers 7.12502
rthumb -6.73474 -14.9262
lclavicle -1.78906e-014 1.90833e-014
lhumerus -53.6251 18.3577 54.5808
lradius 111.15
lwrist 199.724
lhand -12.5683 11.2015
lfingers 7.12502
lthumb 13.5093 40.7433
rfemur 29.6924 13.6467 11.6398
rtibia 28.9736
rfoot -9.97637 3.78568
rtoes -9.74576
lfemur -84.241 7.13228 -27.4949
ltibia 100.627
lfoot 21.3344 4.53894
ltoes -14.2937
92
root 4.63519 16.8765 -0.022916 -846.475 -73.2111 798.143
lowerback 50.1721 5.85957 -2.39482
upperback 12.641 1.40536 -11.4979
thorax -6.53979 -0.0943638 -11.9891
lowerneck 9.14747 2.17847 -3.95008
upperneck 18.8564 0.956549 7.02205
head 4.08765 0.150643 2.83024
rclavicle 1.19271e-014 -2.70347e-014
rhumerus -26.2113 18.4809 -78.6583
rradius 70.7925
rwrist -0.654546
rhand -33.5858 15.2732
rfingers 7.12502
rthumb -6.77971 -14.5983
lclavicle 1.19271e-014 -2.70347e-014
lhumerus -53.8909 19.0774 54.401
lradius 111.837
lwrist 199.693
lhand -12.511 10.6403
lfingers 7.12502
lthumb 13.5645 40.1784
rfemur 30.7745 13.802 11.3524
rtibia 28.0817
rfoot -9.92693 3.41473
rtoes -9.79519
lfemur -84.6171 6.56748 -27.3197
ltibia 95.8322
lfoot 19.6021 5.91069
ltoes -13.8904
